<svg width="27" height="19" viewBox="0 0 27 19" fill="none" xmlns="http://www.w3.org/2000/svg">
<rect width="26.0726" height="19" rx="4" fill="#0060AF"/>
<path fill-rule="evenodd" clip-rule="evenodd" d="M5.36249 11.3207C5.36249 11.0657 5.36537 10.3841 5.35883 10.3001C5.36453 9.28589 4.59777 8.57044 4.11337 8.62622C3.77818 8.65419 3.4972 8.78564 3.34643 9.16378C3.20657 9.5162 3.33161 9.98495 3.79641 10.0949C4.29335 10.2131 4.58362 10.3114 4.79364 10.45C5.05099 10.6198 5.26108 10.9441 5.26665 11.3211" fill="white"/>
<path fill-rule="evenodd" clip-rule="evenodd" d="M5.15478 11.321C5.1564 10.9942 4.9667 10.7052 4.71877 10.5498C4.49885 10.4125 4.2036 10.3224 3.72729 10.2062C3.58006 10.17 3.42605 10.0895 3.37837 9.98694C3.25224 10.1092 3.22933 10.3839 3.25152 10.5446C3.27731 10.7304 3.50311 11.0366 3.8431 11.0486C4.05073 11.0566 4.31323 11.0057 4.43912 10.9799C4.65628 10.9348 4.99987 11.0656 5.05456 11.3206" fill="white"/>
<path fill-rule="evenodd" clip-rule="evenodd" d="M5.5381 7.04553C4.96158 7.04553 4.46368 7.41116 4.46542 8.04383C4.46722 8.57586 4.9121 8.86068 5.07091 9.06411C5.3108 9.37067 5.44065 9.73353 5.45408 10.2887C5.46464 10.7306 5.4641 11.167 5.46644 11.3216H5.59364C5.59148 11.1598 5.58572 10.6966 5.59226 10.2751C5.6009 9.71968 5.73542 9.37067 5.97543 9.06411C6.13562 8.86068 6.58008 8.57586 6.58104 8.04383C6.58326 7.41116 6.08554 7.04553 5.50962 7.04553" fill="white"/>
<path fill-rule="evenodd" clip-rule="evenodd" d="M5.6844 11.3207C5.6844 11.0657 5.68141 10.3841 5.68782 10.3001C5.68219 9.28589 6.44846 8.57044 6.93329 8.62622C7.26848 8.65419 7.5491 8.78564 7.70035 9.16378C7.84003 9.5162 7.71432 9.98495 7.25013 10.0949C6.75283 10.2131 6.46298 10.3114 6.25241 10.45C5.99537 10.6198 5.79997 10.9441 5.79398 11.3211" fill="white"/>
<path fill-rule="evenodd" clip-rule="evenodd" d="M5.89197 11.321C5.89017 10.9942 6.07981 10.7052 6.32702 10.5498C6.5479 10.4125 6.84345 10.3224 7.31934 10.2062C7.46687 10.17 7.6207 10.0895 7.66754 9.98694C7.79427 10.1092 7.81718 10.3839 7.79493 10.5446C7.76866 10.7304 7.5434 11.0366 7.20401 11.0486C6.9965 11.0566 6.73256 11.0057 6.60721 10.9799C6.39089 10.9348 6.04634 11.0656 5.99141 11.3206" fill="white"/>
<path fill-rule="evenodd" clip-rule="evenodd" d="M6.06978 12.3763L5.99607 11.8586L6.17413 11.8327C6.21743 11.827 6.27021 11.8343 6.29132 11.8604C6.31465 11.8876 6.32179 11.9102 6.32629 11.9459C6.33306 11.9902 6.31975 12.0413 6.26793 12.0668V12.0684C6.32575 12.0684 6.36071 12.1084 6.37091 12.1759C6.37235 12.1902 6.37678 12.2245 6.37235 12.2533C6.36059 12.3216 6.31825 12.3436 6.24664 12.3533L6.06978 12.3763ZM6.18426 12.2837C6.20531 12.2807 6.22666 12.2796 6.24335 12.2694C6.26895 12.2533 6.26661 12.2189 6.26303 12.1933C6.25417 12.1372 6.23898 12.1158 6.1772 12.1246L6.13833 12.1303L6.16297 12.2865L6.18426 12.2837ZM6.14704 12.0444C6.17054 12.0408 6.20236 12.038 6.21564 12.0165C6.22263 12.0021 6.23149 11.9907 6.22562 11.9588C6.21839 11.9209 6.20541 11.8974 6.15547 11.9065L6.109 11.9137L6.12736 12.0464L6.14704 12.0444Z" fill="white"/>
<path fill-rule="evenodd" clip-rule="evenodd" d="M6.84112 12.065C6.8425 12.0746 6.84412 12.0853 6.84472 12.095C6.85911 12.1893 6.84112 12.2675 6.73077 12.2891C6.56758 12.3192 6.53634 12.2218 6.50767 12.0853L6.49238 12.0114C6.46989 11.8809 6.46023 11.7821 6.61928 11.7515C6.70894 11.7359 6.76819 11.7702 6.79284 11.856C6.79668 11.8688 6.80148 11.8814 6.80328 11.8944L6.7057 11.9137C6.69443 11.8814 6.67949 11.8238 6.63559 11.8287C6.55679 11.8378 6.58282 11.9321 6.59091 11.9715L6.62024 12.1133C6.62905 12.1561 6.64657 12.2246 6.71476 12.2114C6.77011 12.2007 6.74594 12.1178 6.74103 12.0837" fill="white"/>
<path fill-rule="evenodd" clip-rule="evenodd" d="M6.9977 12.2216L6.96399 11.6859L7.09504 11.6474L7.36989 12.1134L7.26668 12.1431L7.20155 12.0246L7.08694 12.0578L7.10175 12.1924L6.9977 12.2216ZM7.07751 11.9712L7.1601 11.9482L7.05042 11.7314L7.07751 11.9712Z" fill="white"/>
<path fill-rule="evenodd" clip-rule="evenodd" d="M3.75964 11.8166C3.80066 11.6903 3.83736 11.5973 3.99395 11.6386C4.07774 11.6611 4.12967 11.6966 4.12721 11.7902C4.12679 11.811 4.11966 11.8323 4.11498 11.8528L4.01752 11.827C4.0303 11.7753 4.03839 11.7342 3.97218 11.7146C3.89566 11.6944 3.87701 11.7837 3.86645 11.8223L3.82681 11.9627C3.81421 12.0044 3.7991 12.0733 3.86645 12.0911C3.92211 12.1055 3.95581 12.053 3.97596 11.9763L3.90783 11.9588L3.9314 11.8776L4.09171 11.9272L4.0156 12.1979L3.94184 12.1786L3.95845 12.1214H3.95635C3.92235 12.1682 3.88096 12.1731 3.84468 12.1664C3.68437 12.1247 3.7011 12.024 3.73937 11.8893" fill="white"/>
<path fill-rule="evenodd" clip-rule="evenodd" d="M4.35629 12.0452L4.30801 12.2654L4.19934 12.2429L4.31515 11.7287L4.50041 11.7689C4.60884 11.7914 4.64159 11.8378 4.62623 11.9334C4.61748 11.9883 4.58935 12.0473 4.52068 12.0426L4.51996 12.0417C4.57801 12.0612 4.58293 12.0894 4.5728 12.138C4.56842 12.1588 4.53825 12.2844 4.55906 12.3047L4.55978 12.3202L4.44733 12.2919C4.44265 12.2571 4.45861 12.1945 4.4649 12.1598C4.4712 12.1291 4.48134 12.0858 4.44895 12.0696C4.42364 12.0566 4.41417 12.0572 4.3855 12.0509L4.35629 12.0452ZM4.37482 11.9656L4.44779 11.9845C4.4921 11.9908 4.51675 11.9686 4.52548 11.9169C4.53337 11.8696 4.52314 11.8511 4.48337 11.8419L4.40515 11.8266L4.37482 11.9656Z" fill="white"/>
<path fill-rule="evenodd" clip-rule="evenodd" d="M5.05334 11.8435L5.16081 11.8555L5.11451 12.217C5.09202 12.3316 5.04596 12.3817 4.91486 12.366C4.78148 12.3498 4.74981 12.2914 4.75785 12.1759L4.80451 11.8147L4.91282 11.8266L4.86634 12.1797C4.86137 12.218 4.85219 12.2749 4.92308 12.2818C4.98599 12.2864 5.00026 12.2462 5.0074 12.1964" fill="white"/>
<path fill-rule="evenodd" clip-rule="evenodd" d="M5.27926 12.3858L5.31165 11.8689L5.51808 11.8775C5.61571 11.8822 5.6412 11.9588 5.6382 12.0319C5.63533 12.0764 5.62093 12.126 5.58063 12.153C5.54759 12.1759 5.50506 12.1813 5.46572 12.1794L5.39843 12.1759L5.385 12.3925L5.27926 12.3858ZM5.40143 12.097L5.45597 12.1C5.50029 12.1015 5.52966 12.0846 5.53348 12.0219C5.5357 11.9616 5.51201 11.9514 5.4546 11.949L5.41142 11.9475L5.40143 12.097Z" fill="white"/>
<path fill-rule="evenodd" clip-rule="evenodd" d="M19.8427 7.5451L19.022 8.97772C18.7123 8.73576 18.3341 8.55777 17.8515 8.55777C16.7094 8.55777 16.2455 9.37646 16.2455 9.95318C16.2455 10.3813 16.5369 11.0129 17.5531 11.0129C17.9797 11.0129 18.586 10.7276 18.7606 10.5977L17.9489 12.2598C17.562 12.334 17.4349 12.38 17.1074 12.3898C15.2886 12.442 14.5537 11.3673 14.5541 10.2694C14.5554 8.81778 15.8972 7.05247 18.1218 7.05247C18.2581 7.05247 18.4248 7.09786 18.5674 7.1481L18.7115 6.97086" fill="white"/>
<path fill-rule="evenodd" clip-rule="evenodd" d="M23.229 7.01584L23.4614 12.2225H21.7319L21.7309 11.3296H20.5515L20.1634 12.2225H18.2877L20.2487 8.50452L19.8065 8.50175L20.6467 7.01584H23.229ZM21.7196 8.60869L21.0529 10.1232H21.7398L21.7196 8.60869Z" fill="white"/>
<path fill-rule="evenodd" clip-rule="evenodd" d="M13.4623 7.01584C14.3188 7.02046 14.8028 7.46758 14.8028 8.11341C14.8028 8.70888 14.2923 9.23589 13.732 9.50842C14.3089 9.71243 14.3588 10.2131 14.3588 10.5672C14.3588 11.423 13.466 12.2225 12.3055 12.2225H9.77441L10.7617 8.55632L10.3561 8.55407L11.1852 7.01584C11.1852 7.01584 12.7658 7.01123 13.4623 7.01584ZM12.622 9.12688C12.7992 9.12688 13.112 9.08374 13.1902 8.75399C13.2759 8.39598 12.9823 8.38635 12.8415 8.38635L12.3383 8.38427L12.1628 9.12688H12.622ZM11.9106 10.047L11.6789 10.9027H12.2715C12.5045 10.9027 12.8222 10.7914 12.9 10.5129C12.9769 10.2337 12.7548 10.047 12.5226 10.047H11.9106Z" fill="white"/>
<path fill-rule="evenodd" clip-rule="evenodd" d="M5.56089 12.8623C4.6845 12.8623 3.78394 12.6547 2.88452 12.2442L2.86245 12.2337L2.85189 12.2121C2.44827 11.3927 2.23477 10.4966 2.23477 9.61975C2.23477 8.74419 2.43952 7.88634 2.84338 7.06805L2.85453 7.04631L2.87702 7.03546C3.70903 6.6564 4.60401 6.46445 5.5381 6.46445C6.40813 6.46445 7.33742 6.67815 8.2249 7.08363L8.24763 7.09337L8.25819 7.11552C8.66949 7.95002 8.88641 8.846 8.88641 9.70835C8.88641 10.5672 8.67812 11.4259 8.26629 12.2599L8.25549 12.2817L8.23258 12.2919C7.41323 12.6649 6.48934 12.8623 5.56089 12.8623ZM2.96776 12.1318C3.84145 12.5272 4.71292 12.7267 5.56089 12.7267C6.46001 12.7267 7.35415 12.5377 8.15018 12.1794C8.54558 11.3713 8.74601 10.5396 8.74601 9.70835C8.74601 8.87368 8.53683 8.00556 8.14112 7.19558C7.27984 6.80619 6.38036 6.5997 5.5381 6.5997C4.63382 6.5997 3.76703 6.78416 2.9602 7.14811C2.5729 7.94119 2.37576 8.77228 2.37576 9.61975C2.37576 10.4687 2.58057 11.3372 2.96776 12.1318Z" fill="white"/>
</svg>
