<svg width="28" height="19" viewBox="0 0 28 19" fill="none" xmlns="http://www.w3.org/2000/svg">
<rect width="27.0754" height="19" rx="4" fill="white"/>
<path fill-rule="evenodd" clip-rule="evenodd" d="M4.39085 11.2824L5.30971 12.4003H3.03477L4.39085 11.2824ZM4.1019 10.9371L2.32232 12.4037L2.32159 8.7967L4.1019 10.9371ZM8.38371 7.30504C8.38371 7.30504 7.99305 7.12335 7.5392 7.14988C7.02033 7.1799 6.58626 7.37539 6.33671 7.63335C6.17969 7.79541 6.0061 7.9931 5.91891 8.2078C5.79246 8.5184 5.76546 8.92881 5.76546 8.92881C5.76546 8.92881 5.58399 8.77749 5.35663 8.33657C5.09227 7.82372 5.01996 7.51305 4.98414 7.15863C4.95225 6.84761 5.00231 6.54007 5.00231 6.54007H8.38371V7.30504ZM8.38371 8.3276V10.6019C8.38371 10.6019 8.17349 10.6813 8.00202 10.6813C7.83055 10.6813 7.53854 10.6563 7.19939 10.4731C6.86273 10.2914 6.67637 10.0716 6.5319 9.87241C6.38538 9.6698 6.2644 9.38894 6.22843 9.18655C6.19954 9.02463 6.16838 8.62077 6.33671 8.29253C6.42807 8.1144 6.67323 7.80906 7.14525 7.79171C7.53 7.77719 7.74336 7.87658 7.93891 7.98201C8.31104 8.18305 8.38371 8.3276 8.38371 8.3276ZM4.70176 10.4422L5.31168 9.94277C5.1173 9.69883 5.06593 9.60691 4.84864 9.29198C4.62616 8.96964 4.43981 8.61501 4.28045 8.19891C4.10796 7.74817 4.06629 7.49512 4.08534 7.15863C4.1092 6.73051 4.20829 6.54007 4.20829 6.54007H2.32072L2.3216 7.53952C2.3216 7.53952 3.76647 9.31844 4.70176 10.4422ZM6.44448 12.3987H8.38371V11.0095C8.38371 11.0095 7.90272 11.2263 7.59006 11.2438C7.40392 11.2544 7.22325 11.2615 6.93175 11.1853C6.60771 11.1007 6.42362 11.0183 6.12329 10.7749C5.88206 10.5797 5.60625 10.2914 5.60625 10.2914L4.99275 10.794C5.27739 11.136 5.4876 11.385 5.55196 11.452C5.82865 11.7393 5.94591 11.8448 6.13226 11.9472C6.31854 12.0498 6.94095 12.0442 6.94095 12.0442L6.44448 12.3987Z" fill="#E94E0F"/>
<path fill-rule="evenodd" clip-rule="evenodd" d="M23.0501 11.163C23.0501 11.5655 23.1053 12.2271 22.6465 12.3882V12.415H24.3891V12.3882C23.9305 12.2183 23.9856 11.5655 23.9856 11.163V7.79187C23.9856 7.38957 23.9305 6.72783 24.3891 6.55795V6.53113H22.6465V6.55795C23.1143 6.72783 23.0501 7.38061 23.0501 7.79187V11.163ZM16.6603 7.79187L19.8063 11.6817C20.2097 12.1913 20.4942 12.4865 21.1453 12.701V7.68459C21.1453 7.18391 21.1453 6.82615 21.6224 6.55795V6.53113H20.008V6.55795C20.4942 6.82615 20.4849 7.18391 20.4849 7.68459V11.0736L17.1282 6.94239L16.9996 6.76354C16.9356 6.69205 16.8989 6.64737 16.8622 6.54009V6.53113H15.5229V6.55795C15.9999 6.82615 15.9999 7.18391 15.9999 7.68459V11.2526C15.9999 11.7532 15.9999 12.1108 15.5139 12.3882V12.415H17.1374V12.3882C16.6512 12.1108 16.6603 11.7532 16.6603 11.2526V7.79187ZM11.5323 8.9008V7.1482L12.1467 7.08545C12.6971 7.03181 13.284 7.35379 13.284 7.97086C13.284 8.7041 12.431 8.9008 11.835 8.9008H11.5323ZM11.5323 11.6996V9.49084L12.1742 9.45512C12.9814 9.41038 13.8435 9.78607 13.8435 10.6534C13.8435 11.5029 13.0824 11.8427 12.3301 11.7712L11.5323 11.6996ZM10.5967 11.1541C10.5967 11.5655 10.6518 12.2183 10.193 12.3882V12.415H11.7064C12.3943 12.415 13.119 12.4419 13.7609 12.1378C14.3755 11.8516 14.8616 11.2614 14.8616 10.5728C14.8616 9.69664 14.1919 9.16003 13.3665 8.99001C13.8894 8.76656 14.2836 8.42679 14.2836 7.82765C14.2836 7.03181 13.5776 6.53113 12.367 6.53113H10.193V6.55795C10.661 6.72783 10.5967 7.38061 10.5967 7.78291V11.1541Z" fill="#005B6A"/>
</svg>
