<svg width="27" height="19" viewBox="0 0 27 19" fill="none" xmlns="http://www.w3.org/2000/svg">
<rect width="26.0726" height="19" rx="4" fill="#262626"/>
<g opacity="0.01">
<rect x="5.58699" y="4.56" width="14.8298" height="9.86864" fill="white"/>
</g>
<rect x="11.0464" y="6.27936" width="3.91202" height="6.42881" fill="#FF5F00"/>
<path fill-rule="evenodd" clip-rule="evenodd" d="M11.4494 9.49433C11.4484 8.24002 12.0207 7.05492 13.0013 6.28049C11.3354 4.96316 8.94297 5.15504 7.50546 6.72128C6.06795 8.28752 6.06795 10.7023 7.50546 12.2685C8.94297 13.8347 11.3354 14.0266 13.0013 12.7093C12.0204 11.9346 11.4481 10.749 11.4494 9.49433Z" fill="#EB001B"/>
<path fill-rule="evenodd" clip-rule="evenodd" d="M19.1952 11.9242V12.1914H19.168V11.9242H19.1098V11.8689H19.2571V11.9242H19.1952ZM19.4828 11.8689V12.1914H19.4516V11.9472L19.4031 12.1568H19.3695L19.3209 11.9472V12.1914H19.2885V11.8689H19.3334L19.3857 12.0992L19.438 11.8689H19.4828Z" fill="#F79E1B"/>
<path fill-rule="evenodd" clip-rule="evenodd" d="M19.5759 9.49432C19.5759 11.0596 18.6876 12.4875 17.2883 13.1715C15.889 13.8555 14.2243 13.6756 13.0013 12.7082C13.9815 11.9331 14.5539 10.7481 14.5539 9.49375C14.5539 8.23938 13.9815 7.05443 13.0013 6.27934C14.2243 5.31191 15.889 5.132 17.2883 5.81602C18.6876 6.50004 19.5759 7.9279 19.5759 9.49318V9.49432Z" fill="#F79E1B"/>
</svg>
